{"glyphs":{":":{"x_min":0,"x_max":269,"ha":269,"o":"m 75 356 q 75 381 92 399 q 109 416 134 416 q 159 416 176 398 q 193 381 193 356 q 193 332 176 315 q 159 298 134 298 q 109 298 92 315 q 75 332 75 356 z m 75 45 q 75 70 92 87 q 109 104 134 104 q 159 104 176 87 q 193 70 193 45 q 193 21 176 3 q 159 -14 134 -14 q 109 -14 92 3 q 75 21 75 45 z"},"$":{"x_min":0,"x_max":537,"ha":537,"o":"m 253 -2 q 157 2 119 33 q 81 63 81 135 q 81 156 88 168 q 96 180 109 180 q 133 180 145 136 q 151 113 157 102 q 168 80 194 64 q 219 49 253 44 l 253 297 q 168 333 129 374 q 91 416 91 472 q 91 538 135 582 q 179 626 253 634 l 253 710 q 253 719 257 724 q 262 728 272 728 l 281 728 q 290 728 294 724 q 299 719 299 710 l 299 634 q 388 625 422 602 q 456 579 456 530 q 456 517 450 510 q 444 503 431 503 q 413 503 393 531 q 385 542 380 547 q 363 566 344 576 q 325 586 299 590 l 299 364 q 398 320 439 276 q 480 232 480 171 q 480 105 431 59 q 383 13 299 0 l 299 -97 q 299 -106 294 -111 q 290 -115 280 -115 l 271 -115 q 262 -115 258 -111 q 253 -106 253 -97 z m 299 46 q 350 59 376 87 q 402 116 402 158 q 402 195 379 222 q 355 248 299 274 z m 253 387 l 253 590 q 213 583 191 559 q 169 534 169 496 q 169 461 189 435 q 210 408 253 387 z"},"?":{"x_min":0,"x_max":447,"ha":447,"o":"m 303 596 q 303 644 280 671 q 257 698 216 698 q 184 698 160 681 q 136 664 123 631 q 119 620 113 597 q 100 541 69 541 q 55 541 45 552 q 36 564 36 582 q 36 647 91 694 q 146 741 228 741 q 307 741 354 697 q 402 653 402 580 q 402 539 386 506 q 371 473 328 430 q 324 426 315 418 q 267 375 254 321 q 250 303 249 274 q 249 245 247 237 q 244 224 238 217 q 231 210 221 210 q 209 210 203 224 q 197 239 197 268 q 197 318 205 354 q 213 390 231 422 q 237 434 252 457 q 303 539 303 596 z m 164 37 q 164 60 180 76 q 196 92 219 92 q 242 92 257 76 q 273 60 273 36 q 273 14 257 -2 q 240 -18 217 -18 q 194 -18 179 -2 q 164 13 164 37 z"},"<":{"x_min":0,"x_max":833,"ha":833,"o":"m 704 559 l 704 497 l 216 298 l 704 100 l 704 37 l 129 273 l 129 323 z"},"'":{"x_min":0,"x_max":170,"ha":170,"o":"m 93 422 l 77 422 l 45 645 q 44 649 44 653 q 44 657 44 664 q 44 688 54 701 q 65 714 85 714 q 105 714 116 701 q 127 688 127 665 q 127 661 125 648 q 125 646 125 645 z"},"=":{"x_min":0,"x_max":833,"ha":833,"o":"m 124 233 l 709 233 l 709 176 l 124 176 z m 124 420 l 709 420 l 709 363 l 124 363 z"},"a":{"x_min":0,"x_max":524,"ha":524,"o":"m 361 297 q 361 303 362 309 q 362 315 362 328 q 362 403 338 435 q 315 468 262 468 q 235 468 214 458 q 192 447 174 426 q 170 421 162 411 q 138 376 113 376 q 98 376 88 385 q 79 395 79 410 q 79 446 135 478 q 191 510 263 510 q 354 510 397 465 q 440 420 440 325 q 440 298 439 252 q 438 207 438 189 q 438 100 443 76 q 447 52 459 52 q 464 52 471 53 q 479 55 481 55 q 488 55 491 51 q 495 47 495 40 q 495 23 473 5 q 450 -12 426 -12 q 397 -12 363 50 q 360 56 358 59 l 351 59 q 317 25 280 9 q 242 -7 197 -7 q 125 -7 81 32 q 38 71 38 137 q 38 215 95 259 q 153 303 256 303 q 282 303 308 302 q 334 300 361 297 z m 361 254 q 335 258 313 260 q 292 262 273 262 q 199 262 160 232 q 122 202 122 144 q 122 96 149 69 q 176 42 224 42 q 285 42 323 80 q 361 118 361 180 z"},"L":{"x_min":0,"x_max":568,"ha":568,"o":"m 365 58 q 418 58 446 72 q 473 85 493 121 q 500 134 509 159 q 521 193 537 193 q 548 193 555 180 q 562 168 562 146 q 562 87 542 37 q 522 -12 501 -12 q 499 -12 489 -9 q 456 0 422 0 l 126 0 q 81 0 62 7 q 44 14 44 31 q 44 45 73 54 q 101 63 105 69 q 113 79 116 140 q 119 202 119 365 q 119 527 116 588 q 113 649 105 659 q 101 665 73 674 q 44 683 44 697 q 44 716 72 724 q 99 733 160 733 q 221 733 248 724 q 276 716 276 697 q 276 683 248 674 q 219 665 215 659 q 207 648 204 579 q 200 509 200 365 q 200 223 203 164 q 206 104 213 88 q 220 72 245 65 q 271 58 327 58 z"},"3":{"x_min":0,"x_max":537,"ha":537,"o":"m 325 463 q 325 516 295 549 q 265 581 217 581 q 195 581 169 573 q 144 565 116 550 q 107 545 94 537 q 71 522 62 522 q 54 522 48 528 q 43 534 43 542 q 43 551 52 561 q 61 571 91 593 q 125 618 164 630 q 202 643 243 643 q 322 643 372 597 q 422 550 422 478 q 422 440 404 406 q 387 372 352 343 q 347 338 336 333 q 326 327 326 322 q 326 320 342 316 q 358 312 372 306 q 420 286 447 242 q 474 198 474 139 q 474 35 397 -30 q 319 -95 195 -95 q 122 -95 72 -78 q 22 -61 22 -39 q 22 -30 29 -25 q 36 -20 47 -20 q 54 -20 99 -31 q 144 -43 182 -43 q 274 -43 328 2 q 381 47 381 124 q 381 196 337 235 q 294 273 212 273 q 196 273 176 271 q 155 269 150 269 q 142 269 139 274 q 136 279 136 293 q 136 311 159 313 q 170 314 178 315 q 251 328 288 365 q 325 401 325 463 z"},";":{"x_min":0,"x_max":269,"ha":269,"o":"m 71 356 q 71 381 88 399 q 105 416 130 416 q 155 416 172 398 q 189 381 189 356 q 189 332 172 315 q 155 298 130 298 q 105 298 88 315 q 71 332 71 356 z m 76 44 q 76 69 91 85 q 106 101 130 101 q 156 101 172 79 q 189 57 189 23 q 189 -2 179 -29 q 169 -56 145 -96 q 130 -120 123 -128 q 116 -136 110 -136 q 100 -136 92 -132 q 84 -128 84 -123 q 84 -119 106 -84 q 129 -50 129 -29 q 129 -22 126 -19 q 124 -15 114 -11 q 95 -3 85 10 q 76 23 76 44 z"},"J":{"x_min":0,"x_max":509,"ha":509,"o":"m 100 126 q 100 124 99 120 q 99 117 99 111 q 99 76 126 53 q 154 31 197 31 q 234 31 262 46 q 290 61 303 87 q 314 109 319 144 q 324 179 324 243 q 324 260 324 301 q 323 341 323 365 q 323 527 320 588 q 317 649 309 659 q 305 665 276 674 q 248 683 248 697 q 248 716 276 724 q 303 733 364 733 q 425 733 452 724 q 480 716 480 697 q 480 684 455 676 q 431 668 424 664 q 414 657 410 618 q 406 578 406 444 l 406 299 q 406 198 403 158 q 399 118 391 98 q 367 40 319 10 q 270 -20 201 -20 q 119 -20 64 27 q 10 74 10 143 q 10 178 27 200 q 44 222 70 222 q 90 222 104 208 q 118 193 118 172 q 118 160 114 149 q 109 137 100 126 z"},"V":{"x_min":0,"x_max":693,"ha":693,"o":"m 362 141 q 371 141 424 268 l 431 285 q 499 448 529 531 q 559 614 559 637 q 559 650 552 659 q 546 667 531 672 q 526 674 517 677 q 485 687 485 701 q 485 718 511 726 q 538 733 600 733 q 662 733 689 725 q 716 718 716 701 q 716 692 709 687 q 702 681 685 676 q 660 668 648 657 q 636 646 619 611 q 609 590 540 408 q 470 226 402 63 q 399 56 393 42 q 368 -19 349 -19 q 321 -19 202 300 q 134 483 89 598 q 88 600 86 604 q 67 657 46 668 q 40 671 26 675 q -3 685 -3 699 q -3 716 28 725 q 59 733 125 733 q 190 733 221 725 q 252 716 252 699 q 252 684 214 673 q 207 671 204 670 q 190 666 183 657 q 177 648 177 634 q 177 595 239 435 q 256 391 265 367 q 313 240 335 190 q 356 141 362 141 z"},"\"":{"x_min":0,"x_max":331,"ha":331,"o":"m 253 422 l 238 422 l 206 645 q 206 646 206 648 q 204 659 204 664 q 204 688 215 701 q 226 714 246 714 q 266 714 276 701 q 287 688 287 665 q 287 658 287 654 q 287 649 286 645 z m 93 422 l 77 422 l 46 645 q 45 653 44 658 q 44 662 44 665 q 44 688 55 701 q 65 714 85 714 q 105 714 116 701 q 127 688 127 665 q 127 661 125 648 q 125 646 125 645 z"},"7":{"x_min":0,"x_max":537,"ha":537,"o":"m 282 30 q 277 17 269 -5 q 239 -86 210 -86 q 188 -86 171 -75 q 155 -64 155 -51 q 155 -44 164 -20 q 174 3 194 47 l 406 516 q 411 526 413 535 q 416 544 416 548 q 416 554 408 557 q 400 560 387 560 l 179 560 q 141 560 127 554 q 113 548 102 532 q 95 521 86 498 q 71 460 53 460 q 42 460 37 468 q 32 476 32 491 q 32 510 40 540 q 47 570 60 603 q 70 629 78 639 q 86 648 97 648 q 103 648 107 644 q 112 640 116 632 l 424 632 q 472 632 484 627 q 496 622 496 608 q 496 591 466 511 q 458 491 454 480 z"},"S":{"x_min":0,"x_max":572,"ha":572,"o":"m 418 720 q 430 731 437 736 q 445 740 451 740 q 470 740 493 696 q 516 652 516 606 q 516 588 509 579 q 502 569 491 569 q 475 569 453 601 q 443 615 437 622 q 409 657 373 673 q 337 690 291 690 q 230 690 194 657 q 157 625 157 572 q 157 520 185 489 q 213 458 309 419 q 319 415 340 407 q 437 369 480 329 q 507 304 521 271 q 535 237 535 197 q 535 104 463 43 q 392 -17 279 -17 q 211 -17 153 2 q 94 21 72 48 q 61 62 53 99 q 45 137 45 180 q 45 202 52 214 q 58 226 70 226 q 91 226 107 173 q 116 146 122 131 q 141 86 183 62 q 224 37 281 37 q 354 37 399 77 q 445 116 445 178 q 445 196 440 211 q 436 227 426 241 q 395 286 295 324 q 275 332 265 336 q 256 339 239 346 q 147 381 109 424 q 89 446 79 474 q 69 502 69 536 q 69 627 131 684 q 193 740 294 740 q 319 740 350 735 q 380 730 418 720 z"},"}":{"x_min":0,"x_max":500,"ha":500,"o":"m 87 740 l 92 740 q 197 740 237 704 q 277 668 277 571 l 277 467 q 277 390 305 361 q 333 333 414 325 l 414 296 q 334 290 306 260 q 277 231 277 154 l 277 50 q 277 -47 237 -83 q 197 -119 92 -119 l 87 -119 l 87 -94 q 157 -93 182 -68 q 207 -42 207 34 l 207 104 q 207 214 237 255 q 267 295 347 310 q 267 325 237 365 q 207 406 207 516 l 207 586 q 207 662 182 688 q 156 714 87 715 z"},"Z":{"x_min":0,"x_max":611,"ha":611,"o":"m 92 0 q 59 0 42 10 q 26 21 26 42 q 26 55 36 74 q 46 93 66 119 l 445 609 q 456 623 463 635 q 469 647 469 654 q 469 664 453 668 q 438 672 394 672 l 261 672 q 222 672 201 669 q 181 666 164 659 q 139 648 114 604 l 114 603 q 111 599 107 590 q 82 545 60 545 q 51 545 45 554 q 39 564 39 579 q 39 594 44 618 q 48 642 57 669 q 69 708 82 724 q 95 741 113 741 q 114 741 119 740 q 157 729 206 729 l 487 729 q 543 729 564 721 q 585 712 585 692 q 585 675 567 643 q 548 610 514 567 l 162 120 q 150 104 143 92 q 136 80 136 74 q 136 65 155 62 q 173 58 216 58 l 396 58 q 448 58 475 71 q 501 84 523 121 q 531 134 541 158 q 557 196 574 196 q 585 196 592 186 q 598 175 598 156 q 598 87 577 39 q 556 -9 528 -9 q 526 -9 518 -7 q 478 0 437 0 z"},"x":{"x_min":0,"x_max":447,"ha":447,"o":"m 243 299 q 289 372 307 403 q 324 434 324 442 q 324 452 306 460 q 287 468 287 478 q 287 492 305 498 q 322 504 365 504 q 408 504 425 498 q 442 492 442 478 q 442 467 423 460 q 404 453 396 447 q 382 437 357 400 q 332 363 269 259 q 312 187 347 136 q 381 84 398 66 q 409 54 430 45 q 451 37 451 26 q 451 10 428 3 q 405 -4 353 -4 q 297 -4 273 3 q 250 10 250 26 q 250 32 253 36 q 257 40 270 45 q 272 46 275 47 q 295 55 295 69 q 295 80 280 105 q 266 131 211 212 q 163 136 144 100 q 124 64 124 54 q 124 46 141 39 q 158 32 158 22 q 158 8 140 2 q 123 -4 80 -4 q 38 -4 20 2 q 3 8 3 22 q 3 34 23 41 q 43 48 51 54 q 67 63 94 103 q 122 142 186 251 q 143 323 110 375 q 77 426 67 437 q 58 448 38 456 q 18 464 18 475 q 18 490 41 497 q 63 504 116 504 q 173 504 196 497 q 219 491 219 475 q 219 464 195 454 q 171 444 171 431 q 171 419 187 389 q 204 359 243 299 z"},")":{"x_min":0,"x_max":354,"ha":354,"o":"m 195 293 q 195 415 169 501 q 144 587 92 641 q 67 667 31 692 q -6 717 -6 728 q -6 734 -1 738 q 3 741 12 741 q 31 741 64 720 q 98 699 132 664 q 203 592 240 496 q 278 400 278 293 q 278 203 251 120 q 225 38 173 -31 q 133 -85 86 -120 q 39 -155 12 -155 q 3 -155 -2 -152 q -7 -149 -7 -143 q -7 -131 21 -113 q 49 -95 65 -81 q 133 -21 164 69 q 195 158 195 293 z"},"&":{"x_min":0,"x_max":795,"ha":795,"o":"m 216 435 q 179 412 159 370 q 139 328 139 272 q 139 166 210 98 q 281 30 392 30 q 490 30 551 82 q 612 133 612 215 q 612 265 586 297 q 561 328 521 328 q 482 328 456 301 q 429 274 429 234 q 429 229 431 216 q 431 214 431 213 q 425 212 422 211 q 419 211 417 211 q 399 211 389 224 q 379 237 379 259 q 379 294 407 323 q 435 352 503 385 q 518 393 549 407 q 631 445 668 471 q 696 491 711 518 q 726 544 726 573 q 726 596 712 611 q 698 627 677 627 q 669 627 655 623 q 640 619 632 619 q 625 619 619 625 q 614 631 614 639 q 614 655 637 668 q 661 681 693 681 q 743 681 772 652 q 801 623 801 573 q 801 510 750 463 q 700 417 574 366 l 575 359 q 633 344 664 306 q 695 267 695 210 q 695 172 675 133 q 655 95 619 62 q 575 22 511 2 q 448 -18 366 -18 q 304 -18 248 -1 q 191 15 145 47 q 94 82 67 135 q 39 188 39 251 q 39 316 71 366 q 102 416 167 453 l 167 460 q 145 480 134 507 q 123 533 123 565 q 123 642 178 690 q 233 738 321 738 q 380 738 420 717 q 461 696 461 669 q 461 659 455 652 q 449 646 439 646 q 435 646 399 667 q 363 688 325 688 q 274 688 243 659 q 212 629 212 582 q 212 545 227 520 q 242 495 273 481 q 284 476 303 473 q 322 471 322 465 q 322 443 312 432 q 302 421 282 421 q 273 421 257 424 q 241 428 216 435 z"},"_":{"x_min":0,"x_max":500,"ha":500,"o":"m 0 -178 l 500 -178 l 500 -236 l 0 -236 z"},"v":{"x_min":0,"x_max":521,"ha":521,"o":"m 272 95 l 278 95 q 337 210 375 304 q 412 398 412 427 q 412 436 408 441 q 404 446 388 452 q 385 453 380 455 q 354 465 354 477 q 354 492 375 499 q 396 505 445 505 q 494 505 515 499 q 536 492 536 477 q 536 466 515 459 q 504 456 499 453 q 485 447 476 436 q 467 425 457 397 l 451 382 q 299 -13 263 -13 q 241 -13 210 47 q 179 108 86 358 q 83 365 79 378 q 58 435 47 445 q 42 449 23 456 q 3 463 3 475 q 3 491 26 498 q 49 505 101 505 q 157 505 181 498 q 204 491 204 475 q 204 462 176 454 q 170 452 168 451 q 159 448 154 440 q 148 432 148 422 q 148 399 182 307 q 217 215 272 95 z"},"O":{"x_min":0,"x_max":799,"ha":799,"o":"m 409 -20 q 347 -20 290 -2 q 234 17 188 52 q 118 106 79 191 q 40 275 40 374 q 40 438 58 496 q 76 553 110 601 q 158 668 234 706 q 310 743 401 743 q 463 743 519 724 q 575 704 621 666 q 686 613 722 529 q 758 446 758 349 q 758 284 741 226 q 725 168 692 122 q 645 54 571 17 q 498 -20 409 -20 z m 660 321 q 660 386 645 446 q 629 505 600 551 q 558 618 500 653 q 442 688 375 688 q 268 688 203 610 q 138 533 138 403 q 138 337 154 276 q 170 215 200 166 q 239 102 294 68 q 350 35 420 35 q 530 35 595 112 q 660 189 660 321 z"},"(":{"x_min":0,"x_max":354,"ha":354,"o":"m 160 293 q 160 171 186 85 q 211 -1 263 -55 q 288 -81 324 -106 q 361 -132 361 -143 q 361 -149 356 -152 q 352 -155 343 -155 q 324 -155 291 -134 q 257 -113 223 -78 q 152 -6 115 90 q 77 186 77 293 q 77 383 104 465 q 130 547 182 616 q 223 670 270 706 q 316 741 343 741 q 352 741 357 738 q 362 734 362 728 q 362 716 334 698 q 306 680 290 666 q 222 605 191 517 q 160 428 160 293 z"},"C":{"x_min":0,"x_max":669,"ha":669,"o":"m 401 -17 q 342 -17 290 -1 q 237 15 194 46 q 119 100 80 184 q 41 267 41 374 q 41 438 59 496 q 77 555 111 601 q 160 667 231 704 q 302 740 382 740 q 432 740 485 726 q 539 712 543 712 q 553 712 569 716 q 585 720 590 720 q 611 720 626 684 q 640 647 640 591 q 640 570 633 559 q 626 548 613 548 q 594 548 579 583 q 569 607 561 619 q 537 652 492 670 q 447 688 387 688 q 271 688 205 612 q 139 537 139 404 q 139 336 155 275 q 171 213 200 166 q 239 104 292 73 q 345 43 414 43 q 466 43 508 60 q 551 77 577 108 q 586 119 599 139 q 617 166 629 166 q 640 166 646 156 q 653 145 653 127 q 653 91 637 62 q 621 32 604 32 q 603 32 599 33 q 596 34 594 34 q 587 34 574 27 q 568 24 564 22 q 525 2 486 -8 q 447 -17 401 -17 z"},"W":{"x_min":0,"x_max":1028,"ha":1028,"o":"m 519 377 q 484 290 437 159 q 372 -19 349 -19 q 337 -19 328 -7 q 319 5 301 52 q 246 190 180 376 q 114 562 99 600 l 97 604 q 77 658 56 669 q 50 672 37 676 q 8 686 8 700 q 8 717 38 725 q 68 733 134 733 q 202 733 231 725 q 260 717 260 700 q 260 685 214 670 l 212 670 q 198 666 192 658 q 186 649 186 635 q 186 597 247 430 q 261 389 269 367 q 307 261 332 201 q 356 141 362 141 q 370 141 399 213 q 429 285 491 455 q 450 579 433 617 q 417 655 405 664 q 398 669 374 678 q 349 687 349 700 q 349 717 379 725 q 409 733 475 733 q 542 733 571 725 q 600 718 600 700 q 600 685 554 670 l 552 670 q 538 666 530 654 q 523 643 523 625 q 523 609 540 557 q 557 504 607 367 q 653 242 674 192 q 694 141 700 141 q 705 141 717 167 q 729 193 767 288 q 821 425 854 521 q 886 617 886 637 q 886 650 880 659 q 873 667 858 672 q 853 674 843 677 q 811 687 811 701 q 811 718 838 725 q 865 733 927 733 q 989 733 1016 725 q 1043 718 1043 701 q 1043 692 1036 687 q 1029 681 1012 676 q 985 667 972 655 q 959 642 944 611 q 936 594 869 411 q 802 228 736 61 q 732 52 727 37 q 705 -19 689 -19 q 665 -19 586 195 q 545 308 519 377 z"},"A":{"x_min":0,"x_max":706,"ha":706,"o":"m 222 301 q 242 302 266 303 q 290 303 342 303 q 397 303 427 303 q 456 302 482 301 q 444 400 411 479 q 377 557 356 597 l 349 597 q 331 562 300 490 q 269 418 222 301 z m 349 246 l 297 246 q 241 246 222 243 q 204 240 199 233 q 196 229 191 219 q 187 209 176 181 q 174 176 170 166 q 148 112 148 96 q 148 83 155 75 q 162 66 177 61 q 182 59 191 56 q 223 45 223 31 q 223 13 196 4 q 169 -4 107 -4 q 45 -4 19 4 q -8 12 -8 31 q -8 45 24 55 q 40 60 47 63 q 71 78 106 165 l 109 171 q 142 251 198 386 q 318 674 325 705 q 326 708 327 714 q 332 738 359 738 q 375 738 384 731 q 394 724 407 694 q 463 571 564 312 q 612 189 637 128 q 639 124 641 118 q 660 72 679 61 q 685 58 698 54 q 727 44 727 30 q 727 13 696 4 q 666 -4 600 -4 q 534 -4 504 4 q 473 13 473 30 q 473 44 508 57 q 515 59 520 61 q 534 63 541 72 q 548 80 548 94 q 548 110 536 149 q 523 188 504 226 q 498 237 479 242 q 459 246 404 246 z"},"f":{"x_min":0,"x_max":269,"ha":269,"o":"m 85 437 l 16 437 q 6 437 2 441 q -2 446 -2 456 l -2 469 q -2 479 2 484 q 6 489 15 489 l 83 489 q 83 504 81 530 q 79 569 79 580 q 79 658 119 700 q 159 741 235 741 q 285 741 317 721 q 348 702 348 671 q 348 653 338 643 q 327 632 310 632 q 297 632 286 638 q 275 645 268 656 q 266 659 263 665 q 243 698 215 698 q 186 698 169 674 q 152 650 152 608 q 152 598 156 559 q 160 519 160 489 l 253 489 q 263 489 267 484 q 271 479 271 469 l 271 456 q 271 446 267 442 q 262 437 253 437 l 161 437 q 161 207 163 144 q 165 82 169 67 q 171 59 177 55 q 184 50 202 46 q 203 46 204 45 q 230 39 230 26 q 230 10 206 3 q 182 -4 124 -4 q 72 -4 48 3 q 25 10 25 26 q 25 39 46 45 q 67 51 72 56 q 81 64 84 101 q 87 139 87 281 q 87 309 87 341 q 86 373 85 437 z"},"Q":{"x_min":0,"x_max":799,"ha":799,"o":"m 353 -11 q 484 -72 551 -95 q 619 -119 658 -119 q 680 -119 694 -114 q 708 -108 716 -96 q 720 -89 726 -74 q 735 -43 753 -43 q 763 -43 769 -52 q 775 -61 775 -74 q 775 -114 730 -149 q 686 -183 625 -183 q 586 -183 539 -169 q 492 -156 416 -121 q 398 -113 365 -98 q 210 -27 184 -27 q 177 -27 170 -31 q 163 -36 156 -45 q 153 -49 147 -59 q 130 -87 110 -87 q 99 -87 91 -79 q 83 -70 83 -58 q 83 -29 121 -8 q 160 13 216 13 q 230 13 244 12 q 257 11 270 9 q 161 53 101 149 q 40 246 40 373 q 40 437 58 494 q 75 552 110 601 q 158 668 234 706 q 310 743 401 743 q 463 743 519 724 q 575 704 621 666 q 686 613 722 529 q 758 446 758 349 q 758 188 663 86 q 568 -17 419 -17 q 405 -17 389 -16 q 373 -14 353 -11 z m 660 321 q 660 386 645 446 q 629 505 600 551 q 558 617 500 652 q 443 687 375 687 q 267 687 203 610 q 138 533 138 403 q 138 337 154 276 q 170 215 200 166 q 239 102 294 68 q 350 35 420 35 q 530 35 595 112 q 660 189 660 321 z"},"w":{"x_min":0,"x_max":780,"ha":780,"o":"m 550 95 l 556 95 q 616 210 653 304 q 690 398 690 427 q 690 436 686 441 q 682 446 666 452 q 664 453 659 455 q 632 465 632 477 q 632 492 653 499 q 673 505 722 505 q 771 505 793 498 q 814 492 814 477 q 814 466 792 459 q 783 456 777 453 q 763 447 754 436 q 745 425 735 397 l 729 382 q 577 -13 541 -13 q 510 -13 432 181 q 410 235 397 266 q 384 234 361 180 q 282 -13 254 -13 q 216 -13 84 338 l 77 358 q 74 367 68 382 q 48 435 37 445 q 33 449 13 456 q -6 463 -6 475 q -6 491 17 498 q 40 505 92 505 q 147 505 171 498 q 194 491 194 475 q 194 462 167 454 q 161 452 158 451 q 149 448 144 440 q 139 432 139 421 q 139 400 174 307 q 209 213 263 95 l 269 95 q 286 120 311 177 q 336 234 373 332 q 357 380 347 406 q 336 431 330 439 q 322 449 302 456 q 281 463 281 475 q 281 491 304 498 q 327 505 379 505 q 435 505 458 498 q 481 491 481 475 q 481 462 453 454 q 448 452 445 451 q 436 448 431 440 q 426 432 426 421 q 426 399 461 306 q 496 213 550 95 z"},"-":{"x_min":0,"x_max":306,"ha":306,"o":"m 153 224 q 125 224 95 223 q 64 221 63 221 q 48 221 43 225 q 37 229 37 238 q 37 260 52 276 q 66 291 90 291 q 92 291 99 291 q 133 290 165 290 q 185 290 211 292 q 237 293 243 293 q 257 293 263 289 q 269 285 269 276 q 269 254 255 239 q 240 223 216 223 q 214 223 193 224 q 172 224 153 224 z"},"E":{"x_min":0,"x_max":606,"ha":606,"o":"m 112 0 q 67 0 48 7 q 30 14 30 31 q 30 45 58 54 q 86 63 90 69 q 98 79 101 140 q 104 202 104 365 q 104 527 101 588 q 98 649 90 659 q 86 665 58 674 q 30 683 30 697 q 30 714 49 721 q 68 729 112 729 l 451 729 q 476 729 501 734 q 526 739 527 739 q 547 739 558 709 q 570 680 570 628 q 570 608 563 598 q 557 587 544 587 q 531 587 516 615 q 511 624 508 628 q 493 652 474 661 q 455 670 415 670 l 286 670 q 240 670 221 666 q 203 662 199 651 q 193 636 190 592 q 188 548 188 452 l 188 444 q 188 420 192 416 q 196 411 211 411 l 343 411 q 376 411 390 422 q 404 433 408 462 q 409 466 410 473 q 416 518 437 518 q 456 518 463 493 q 470 468 470 382 q 470 296 463 272 q 456 247 437 247 q 416 247 410 292 q 409 299 408 303 q 404 333 390 343 q 376 354 343 354 l 211 354 q 197 354 192 346 q 187 339 187 315 q 187 309 188 288 q 188 267 188 251 q 188 180 191 141 q 194 103 200 88 q 207 72 232 65 q 257 58 313 58 l 403 58 q 457 58 484 72 q 511 85 531 121 q 539 135 547 159 q 560 193 575 193 q 587 193 594 180 q 601 167 601 146 q 601 87 581 37 q 561 -12 540 -12 q 538 -12 527 -9 q 494 0 460 0 z"},"s":{"x_min":0,"x_max":377,"ha":377,"o":"m 262 503 q 272 509 279 511 q 285 514 290 514 q 308 514 326 481 q 344 447 344 408 q 344 392 337 382 q 331 373 319 373 q 302 373 289 402 q 286 409 284 412 q 267 448 248 460 q 228 473 195 473 q 160 473 136 451 q 112 430 112 398 q 112 341 235 289 q 260 278 273 272 q 315 253 339 218 q 363 182 363 138 q 363 71 314 28 q 266 -14 189 -14 q 165 -14 134 -6 q 103 2 96 2 q 89 2 78 -3 q 66 -9 62 -9 q 48 -9 33 27 q 18 62 18 101 q 18 116 26 125 q 34 134 47 134 q 61 134 78 104 q 84 92 88 86 q 104 59 130 44 q 156 30 188 30 q 232 30 260 54 q 288 78 288 115 q 288 145 272 166 q 256 187 219 204 q 206 210 178 221 q 103 250 70 282 q 51 300 41 324 q 31 347 31 374 q 31 435 76 475 q 122 514 192 514 q 207 514 224 511 q 242 508 262 503 z"},">":{"x_min":0,"x_max":833,"ha":833,"o":"m 129 559 l 704 323 l 704 273 l 129 37 l 129 100 l 617 298 l 129 497 z"},"l":{"x_min":0,"x_max":244,"ha":244,"o":"m 160 388 q 160 197 163 134 q 165 71 171 62 q 177 53 199 46 q 222 39 222 26 q 222 10 199 3 q 176 -4 124 -4 q 72 -4 48 3 q 25 10 25 26 q 25 39 48 46 q 70 53 76 62 q 81 71 83 114 q 85 156 85 276 l 85 360 q 85 554 81 604 q 77 653 67 661 q 64 663 40 667 q 15 670 15 687 q 15 696 24 704 q 33 712 52 720 q 78 730 103 736 q 128 742 139 742 q 154 742 159 735 q 165 727 165 706 q 165 701 164 676 q 160 533 160 388 z"},"8":{"x_min":0,"x_max":537,"ha":537,"o":"m 298 391 q 351 417 377 451 q 404 486 404 529 q 404 580 367 614 q 331 647 275 647 q 221 647 184 616 q 148 585 148 540 q 148 500 182 466 q 215 432 298 391 z m 183 355 q 117 393 88 430 q 60 467 60 514 q 60 590 123 641 q 186 692 281 692 q 366 692 420 647 q 474 602 474 534 q 474 483 441 441 q 408 400 340 366 q 421 325 459 278 q 498 230 498 173 q 498 93 431 39 q 364 -15 263 -15 q 166 -15 102 38 q 38 91 38 170 q 38 229 74 274 q 110 320 183 355 z m 226 330 q 167 304 138 266 q 109 228 109 178 q 109 115 154 73 q 199 31 267 31 q 329 31 369 66 q 410 101 410 152 q 410 200 371 239 q 332 277 226 330 z"},"\\":{"x_min":0,"x_max":278,"ha":278,"o":"m 279 -77 l -19 708 q -21 714 -23 720 q -24 726 -24 730 q -24 735 -18 738 q -12 741 0 741 q 12 741 18 737 q 24 733 28 724 l 327 -61 q 329 -66 330 -71 q 331 -75 331 -80 q 331 -87 325 -90 q 320 -93 308 -93 q 295 -93 289 -89 q 282 -85 279 -77 z"},"e":{"x_min":0,"x_max":530,"ha":530,"o":"m 146 313 l 393 313 q 404 313 408 317 q 412 321 412 333 q 412 390 374 428 q 335 466 276 466 q 245 466 217 452 q 188 438 167 413 q 150 393 139 369 q 129 345 129 327 q 129 319 133 316 q 136 313 146 313 z m 452 271 l 144 271 q 134 271 131 267 q 127 263 127 252 q 127 161 175 102 q 224 44 299 44 q 328 44 356 54 q 383 63 406 82 q 417 91 438 115 q 459 138 473 138 q 481 138 487 133 q 492 128 492 120 q 492 109 486 96 q 479 83 467 70 q 430 29 382 8 q 334 -13 279 -13 q 174 -13 106 59 q 37 132 37 242 q 37 359 109 436 q 181 513 289 513 q 383 513 438 460 q 493 408 493 318 q 493 289 487 280 q 480 271 452 271 z"},"b":{"x_min":0,"x_max":574,"ha":574,"o":"m 292 463 q 254 463 221 445 q 188 426 167 394 q 159 382 156 360 q 153 337 153 271 q 153 207 155 165 q 157 124 160 111 q 168 77 203 53 q 238 30 282 30 q 356 30 401 90 q 447 151 447 250 q 447 346 404 404 q 361 463 292 463 z m 152 446 l 159 446 q 192 481 229 498 q 266 514 313 514 q 412 514 475 445 q 537 376 537 266 q 537 205 512 149 q 487 93 440 50 q 406 18 362 1 q 318 -15 268 -15 q 228 -15 191 -3 q 155 9 122 33 q 107 24 95 20 q 83 16 73 16 q 64 16 58 19 q 51 21 45 27 q 63 44 71 83 q 78 121 78 228 q 78 468 75 555 q 71 643 63 656 q 58 663 32 667 q 7 670 7 687 q 7 696 16 704 q 24 712 44 720 q 69 730 95 736 q 120 742 131 742 q 146 742 151 735 q 156 728 156 706 q 156 702 155 680 q 152 563 152 446 z"},"%":{"x_min":0,"x_max":757,"ha":757,"o":"m 74 499 q 74 427 103 382 q 131 337 175 337 q 217 337 240 366 q 263 395 263 448 q 263 515 233 562 q 203 610 162 610 q 123 610 98 580 q 74 549 74 499 z m 6 479 q 6 551 52 599 q 99 646 168 646 q 240 646 285 597 q 331 548 331 470 q 331 396 287 348 q 243 301 174 301 q 102 301 54 352 q 6 402 6 479 z m 593 618 q 593 615 497 469 q 402 324 308 170 q 277 119 241 52 q 206 -14 197 -14 q 186 -14 171 -4 q 156 5 156 14 q 156 20 235 143 q 314 265 383 378 q 421 440 475 531 q 542 646 552 646 q 562 646 577 636 q 593 625 593 618 z m 487 184 q 487 112 515 67 q 544 22 588 22 q 630 22 653 51 q 676 81 676 134 q 676 201 646 248 q 616 295 575 295 q 535 295 511 265 q 487 234 487 184 z m 419 164 q 419 236 466 284 q 512 331 581 331 q 653 331 698 282 q 744 233 744 155 q 744 81 700 33 q 656 -14 587 -14 q 515 -14 467 37 q 419 87 419 164 z"},"m":{"x_min":0,"x_max":866,"ha":866,"o":"m 161 435 q 161 426 163 424 q 164 421 167 421 q 174 421 186 438 q 191 445 194 448 q 221 481 251 498 q 281 514 317 514 q 353 514 383 500 q 413 485 434 458 q 443 447 451 430 q 459 413 464 413 q 472 413 484 432 q 492 444 498 452 q 523 484 553 499 q 583 514 623 514 q 676 514 715 490 q 754 465 771 421 q 781 395 786 360 q 790 325 790 261 l 790 175 q 790 108 793 85 q 796 62 803 56 q 808 51 829 45 q 849 39 849 26 q 849 10 826 3 q 803 -4 751 -4 q 699 -4 676 3 q 653 10 653 26 q 653 39 676 46 q 698 53 704 62 q 709 71 711 113 q 713 156 713 275 q 713 367 690 407 q 667 447 615 447 q 579 447 542 423 q 506 399 486 362 q 480 351 478 322 q 475 293 475 217 l 475 175 q 475 108 478 85 q 481 62 488 56 q 493 51 514 45 q 535 39 535 26 q 535 10 512 3 q 489 -4 438 -4 q 387 -4 365 3 q 342 10 342 26 q 342 39 365 46 q 387 53 393 62 q 398 70 400 105 q 402 141 402 275 q 402 367 379 407 q 355 447 303 447 q 268 447 230 422 q 193 398 172 361 q 167 351 164 335 q 162 319 162 281 l 162 259 q 162 149 164 110 q 166 70 171 62 q 177 53 199 46 q 222 39 222 26 q 222 10 199 3 q 176 -4 124 -4 q 72 -4 48 3 q 25 10 25 26 q 25 39 48 46 q 70 53 76 62 q 82 72 84 115 q 86 159 86 259 q 86 334 83 376 q 80 417 73 427 q 69 434 43 437 q 17 441 17 458 q 17 476 58 495 q 100 514 137 514 q 150 514 156 506 q 161 499 161 477 z"},"#":{"x_min":0,"x_max":769,"ha":769,"o":"m 342 424 l 293 284 l 434 284 l 484 424 z m 380 711 l 445 711 l 363 481 l 503 481 l 585 711 l 649 711 l 568 481 l 718 481 l 698 424 l 547 424 l 498 284 l 660 284 l 639 228 l 478 228 l 397 -1 l 332 -1 l 413 228 l 273 228 l 192 -1 l 128 -1 l 209 228 l 51 228 l 72 284 l 229 284 l 278 424 l 108 424 l 129 481 l 299 481 z"},",":{"x_min":0,"x_max":269,"ha":269,"o":"m 74 44 q 74 69 89 85 q 104 101 128 101 q 153 101 170 79 q 187 57 187 23 q 187 -2 177 -29 q 167 -56 143 -96 q 128 -120 121 -128 q 114 -136 108 -136 q 98 -136 90 -132 q 82 -128 82 -123 q 82 -119 104 -84 q 127 -50 127 -29 q 127 -22 125 -19 q 122 -15 112 -11 q 93 -3 83 10 q 74 23 74 44 z"},"n":{"x_min":0,"x_max":578,"ha":578,"o":"m 161 435 q 161 426 163 424 q 164 421 167 421 q 174 421 187 439 q 198 454 205 462 q 228 488 258 501 q 289 514 327 514 q 397 514 439 478 q 480 442 497 368 q 500 355 501 335 q 503 315 503 282 q 503 271 502 248 q 502 224 502 210 q 502 185 503 156 q 503 128 505 97 q 506 75 510 66 q 514 57 523 51 q 527 48 539 45 q 562 39 562 26 q 562 10 539 3 q 516 -4 464 -4 q 412 -4 389 3 q 366 10 366 26 q 366 39 389 46 q 411 53 417 62 q 422 70 424 105 q 426 141 426 275 q 426 368 400 407 q 374 447 314 447 q 275 447 242 430 q 209 413 183 379 q 171 365 167 347 q 162 330 162 295 l 162 259 q 162 149 164 110 q 166 70 171 62 q 177 53 199 46 q 222 39 222 26 q 222 10 199 3 q 176 -4 124 -4 q 72 -4 48 3 q 25 10 25 26 q 25 39 48 46 q 70 53 76 62 q 82 72 84 115 q 86 159 86 259 q 86 334 83 376 q 80 417 73 427 q 69 434 43 437 q 17 441 17 458 q 17 476 58 495 q 100 514 137 514 q 150 514 156 506 q 161 499 161 477 z"},"h":{"x_min":0,"x_max":578,"ha":578,"o":"m 161 435 q 161 426 163 424 q 164 421 167 421 q 174 421 187 439 q 198 454 205 462 q 228 488 258 501 q 289 514 327 514 q 397 514 439 478 q 480 442 497 368 q 500 355 501 335 q 503 315 503 282 q 503 271 502 248 q 502 224 502 210 q 502 179 504 106 q 504 100 504 97 q 506 74 510 65 q 514 57 523 51 q 527 48 539 45 q 562 39 562 26 q 562 10 539 3 q 516 -4 464 -4 q 412 -4 389 3 q 366 10 366 26 q 366 39 389 46 q 411 53 417 62 q 422 70 424 105 q 426 141 426 275 q 426 368 400 407 q 374 447 314 447 q 275 447 242 430 q 209 413 183 379 q 171 365 167 347 q 162 330 162 295 l 162 259 q 162 149 164 110 q 166 70 171 62 q 177 53 199 46 q 222 39 222 26 q 222 10 199 3 q 176 -4 124 -4 q 72 -4 48 3 q 25 10 25 26 q 25 39 48 46 q 70 53 76 62 q 82 71 84 119 q 86 167 86 309 q 86 500 83 573 q 80 645 72 656 q 68 663 42 666 q 15 670 15 687 q 15 696 24 704 q 33 712 52 720 q 78 730 103 736 q 128 742 139 742 q 154 742 159 735 q 165 727 165 706 q 165 700 164 672 q 161 569 161 477 z"},"z":{"x_min":0,"x_max":419,"ha":419,"o":"m 276 412 q 286 426 289 432 q 292 438 292 442 q 292 449 281 452 q 269 455 241 455 l 178 455 q 130 455 112 447 q 95 438 77 407 q 76 405 73 399 q 55 367 39 367 q 32 367 26 373 q 20 379 20 387 q 20 432 38 470 q 55 508 75 508 q 76 508 79 507 q 105 500 139 500 l 331 500 q 370 500 384 494 q 398 488 398 474 q 398 457 359 402 q 353 394 350 389 l 136 88 q 127 76 123 68 q 119 60 119 56 q 119 50 133 47 q 146 44 173 44 l 270 44 q 305 44 323 53 q 341 62 357 88 q 362 97 369 113 q 380 139 393 139 q 403 139 408 133 q 413 126 413 113 q 413 68 397 31 q 380 -6 361 -6 q 360 -6 354 -5 q 326 0 298 0 l 62 0 q 40 0 28 7 q 16 15 16 29 q 16 37 21 47 q 26 57 44 82 z"},"B":{"x_min":0,"x_max":620,"ha":620,"o":"m 230 348 q 201 348 195 341 q 189 333 189 295 l 189 287 q 189 202 191 149 q 193 97 197 82 q 201 69 236 58 q 271 48 318 48 q 399 48 447 86 q 494 124 494 188 q 494 272 432 310 q 369 348 230 348 z m 189 500 l 189 443 q 189 415 195 408 q 202 401 230 401 q 349 401 402 434 q 455 468 455 541 q 455 610 411 646 q 368 681 282 681 q 241 681 221 678 q 202 675 198 669 q 193 660 191 618 q 189 576 189 500 z m 556 556 q 556 507 531 468 q 506 430 458 405 q 441 396 421 390 q 401 384 401 380 q 401 374 428 369 q 439 367 447 365 q 521 349 559 305 q 597 261 597 194 q 597 100 528 49 q 459 -2 332 -2 q 300 -2 250 0 q 199 3 181 3 q 157 3 128 1 q 99 0 95 0 q 62 0 46 8 q 30 15 30 31 q 30 45 58 54 q 86 63 90 69 q 98 79 101 140 q 104 202 104 365 q 104 527 101 588 q 98 649 90 659 q 86 665 58 674 q 30 683 30 697 q 30 708 39 716 q 49 724 66 726 q 66 726 71 726 q 174 732 317 732 q 428 732 492 685 q 556 637 556 556 z"},"K":{"x_min":0,"x_max":648,"ha":648,"o":"m 322 462 q 289 427 279 415 q 270 403 270 396 q 270 391 310 347 l 318 338 l 458 188 l 474 171 q 557 80 590 67 q 602 62 625 57 q 666 46 666 29 q 666 13 643 4 q 621 -4 577 -4 q 558 -4 542 -2 q 527 0 519 3 q 507 8 490 24 q 473 40 427 89 q 371 151 291 241 q 206 337 199 337 q 196 337 195 333 q 193 328 193 321 l 193 199 q 193 121 197 96 q 200 71 209 65 q 217 61 234 55 q 265 45 265 31 q 265 13 238 4 q 211 -4 149 -4 q 87 -4 60 4 q 33 13 33 31 q 33 45 61 54 q 89 63 94 69 q 102 79 105 140 q 108 202 108 365 q 108 527 105 588 q 102 649 94 659 q 90 665 62 674 q 33 683 33 697 q 33 716 61 724 q 88 733 149 733 q 210 733 238 724 q 265 716 265 697 q 265 684 240 676 q 216 668 209 664 q 200 658 197 636 q 193 614 193 532 l 193 431 q 193 417 194 412 q 195 406 198 406 q 201 406 206 409 q 211 413 216 419 l 387 605 q 390 608 396 614 q 427 648 427 655 q 427 666 408 675 q 389 685 389 698 q 389 715 417 724 q 446 733 499 733 q 549 733 575 724 q 601 715 601 698 q 601 683 572 675 q 565 673 562 672 q 516 660 467 611 l 463 607 z"},"R":{"x_min":0,"x_max":637,"ha":637,"o":"m 190 398 q 208 395 222 394 q 236 392 246 392 q 344 392 395 431 q 447 470 447 544 q 447 609 403 645 q 358 681 277 681 l 261 681 q 221 681 210 677 q 199 674 196 663 q 193 651 191 585 q 190 519 190 398 z m 391 363 q 446 344 479 308 q 511 272 531 208 q 539 181 550 137 q 572 49 607 49 q 616 49 628 53 q 641 57 646 57 q 654 57 659 52 q 664 46 664 38 q 664 20 637 5 q 609 -10 572 -10 q 548 -10 530 -3 q 512 3 499 17 q 476 42 454 128 q 448 152 444 166 q 426 231 406 266 q 387 300 358 320 q 338 334 312 340 q 286 346 228 346 q 200 346 194 339 q 188 332 188 298 l 188 277 q 188 166 191 122 q 194 78 201 69 q 205 63 233 54 q 261 45 261 31 q 261 13 234 4 q 207 -4 145 -4 q 83 -4 57 4 q 30 12 30 31 q 30 45 58 54 q 86 63 90 69 q 98 79 101 140 q 104 202 104 365 q 104 527 101 588 q 98 649 90 659 q 86 665 58 674 q 30 683 30 697 q 30 708 39 716 q 49 724 66 726 q 66 726 71 726 q 172 732 309 732 q 417 732 481 684 q 546 635 546 556 q 546 492 506 445 q 467 397 391 370 z"},"T":{"x_min":0,"x_max":586,"ha":586,"o":"m 252 566 l 252 607 q 252 649 246 659 q 241 669 216 669 l 163 669 q 133 669 117 661 q 102 654 89 634 q 80 620 68 591 q 48 543 29 543 q 18 543 12 554 q 7 565 7 587 q 7 651 25 692 q 44 734 71 734 q 73 734 81 732 q 108 725 134 725 l 451 725 q 477 725 504 732 q 512 734 514 734 q 542 734 560 692 q 579 650 579 587 q 579 565 573 554 q 567 543 556 543 q 537 543 518 590 q 506 620 497 634 q 484 654 468 661 q 452 669 422 669 l 369 669 q 345 669 339 660 q 334 652 334 614 l 334 566 l 334 365 q 334 202 337 140 q 340 79 348 69 q 352 63 380 54 q 408 45 408 31 q 408 12 381 4 q 354 -4 293 -4 q 231 -4 204 4 q 177 13 177 31 q 177 45 205 54 q 233 63 237 69 q 245 79 249 145 q 252 211 252 365 z"},"P":{"x_min":0,"x_max":553,"ha":553,"o":"m 188 381 q 204 377 219 376 q 234 374 248 374 q 352 374 404 413 q 455 452 455 531 q 455 607 412 644 q 370 681 282 681 q 224 681 211 677 q 198 673 195 662 q 192 650 190 575 q 188 501 188 381 z m 555 540 q 555 438 478 382 q 400 327 256 327 q 248 327 236 328 q 224 329 221 329 q 198 329 193 322 q 188 314 188 275 l 188 266 q 188 169 191 124 q 194 78 201 69 q 205 63 233 54 q 261 45 261 31 q 261 13 234 4 q 207 -4 145 -4 q 83 -4 57 4 q 30 12 30 31 q 30 45 58 54 q 86 63 90 69 q 98 79 101 140 q 104 202 104 365 q 104 527 101 588 q 98 649 90 659 q 86 665 58 674 q 30 683 30 697 q 30 708 39 716 q 49 724 66 726 q 66 726 71 726 q 174 732 317 732 q 430 732 493 682 q 555 631 555 540 z"},"|":{"x_min":0,"x_max":500,"ha":500,"o":"m 219 764 l 281 764 l 281 -236 l 219 -236 z"},"t":{"x_min":0,"x_max":299,"ha":299,"o":"m 81 440 l 39 440 q 32 440 28 443 q 24 445 24 450 l 24 464 q 24 479 61 519 q 71 530 77 537 q 83 543 92 554 q 129 596 142 596 q 150 596 154 592 q 158 588 158 581 l 158 492 l 259 492 q 269 492 273 488 q 277 483 277 472 l 277 459 q 277 449 272 445 q 268 440 259 440 l 169 440 q 164 440 161 436 q 158 432 158 424 l 158 153 q 158 91 170 70 q 182 48 212 48 q 226 48 245 56 q 264 64 269 64 q 277 64 281 60 q 286 55 286 48 q 286 26 253 6 q 221 -14 180 -14 q 127 -14 104 19 q 81 51 81 129 z"},"M":{"x_min":0,"x_max":866,"ha":866,"o":"m 163 607 l 157 363 q 157 360 157 345 q 156 261 156 177 l 156 156 q 156 104 159 87 q 163 70 171 65 q 179 61 196 55 q 227 45 227 31 q 227 13 203 5 q 179 -3 125 -3 q 66 -3 42 5 q 17 13 17 31 q 17 45 59 59 l 62 60 q 74 64 79 71 q 84 79 87 100 l 87 100 q 106 271 106 568 l 106 588 q 106 630 103 645 q 100 660 93 665 q 86 669 63 678 q 39 686 39 700 q 39 717 62 724 q 86 732 141 732 q 170 732 184 730 q 199 728 204 723 q 216 713 240 641 q 248 617 253 603 q 319 415 370 292 q 421 170 431 170 q 441 170 489 281 q 538 391 605 569 q 614 593 628 632 q 649 692 658 707 q 666 720 683 726 q 699 732 728 732 q 791 732 815 725 q 839 718 839 700 q 839 686 815 678 q 791 669 784 665 q 775 660 772 638 q 769 617 769 551 l 769 498 q 769 331 773 216 q 778 100 784 79 q 788 67 813 60 q 820 58 825 56 q 838 51 844 46 q 850 40 850 32 q 850 14 819 5 q 787 -4 725 -4 q 670 -4 645 4 q 619 12 619 29 q 619 44 648 54 q 658 58 664 60 q 678 65 684 84 q 689 102 689 158 l 689 231 q 689 287 689 314 q 688 341 688 364 l 684 623 q 578 353 539 254 q 499 155 475 98 q 472 90 465 75 q 439 11 418 11 q 388 11 252 374 q 197 520 163 607 z"},"g":{"x_min":0,"x_max":525,"ha":525,"o":"m 143 12 q 128 -3 120 -21 q 112 -40 112 -60 q 112 -107 154 -135 q 195 -163 266 -163 q 347 -163 400 -129 q 452 -95 452 -45 q 452 -14 433 2 q 413 18 376 18 q 363 18 309 11 q 255 5 213 5 q 192 5 175 7 q 158 8 143 12 z m 134 201 q 99 223 82 256 q 64 289 64 331 q 64 411 123 462 q 181 514 271 514 q 300 514 342 506 q 385 497 399 497 q 421 497 442 507 q 464 517 482 536 q 492 533 497 525 q 502 518 502 506 q 502 486 486 469 q 471 451 441 438 q 454 417 460 396 q 466 375 466 352 q 466 272 405 220 q 344 167 252 167 q 230 167 208 171 q 187 176 167 184 q 146 176 133 159 q 120 143 120 123 q 120 102 139 87 q 159 73 188 73 q 220 73 292 82 q 364 91 403 91 q 462 91 495 61 q 529 32 529 -20 q 529 -99 450 -153 q 371 -206 249 -206 q 155 -206 97 -168 q 40 -129 40 -68 q 40 -38 55 -16 q 70 7 104 27 q 76 39 62 57 q 49 74 49 99 q 49 131 70 157 q 92 183 134 201 z m 142 341 q 142 280 175 243 q 208 205 260 205 q 314 205 350 243 q 385 280 385 339 q 385 400 351 438 q 316 475 261 475 q 210 475 176 437 q 142 399 142 341 z"},"j":{"x_min":0,"x_max":244,"ha":244,"o":"m 92 31 q 92 229 88 322 q 84 415 76 427 q 72 434 46 437 q 20 441 20 458 q 20 467 29 475 q 37 483 56 491 q 81 501 107 507 q 133 513 145 513 q 159 513 165 506 q 170 499 170 477 q 170 472 169 449 q 166 313 166 175 q 166 111 167 45 q 167 -21 167 -25 q 167 -134 142 -170 q 117 -206 52 -206 q 19 -206 1 -198 q -16 -191 -16 -177 q -16 -168 -11 -164 q -5 -160 5 -160 q 10 -160 23 -162 q 36 -164 44 -164 q 72 -164 82 -141 q 92 -118 92 -30 z m 63 676 q 63 699 78 715 q 94 731 117 731 q 140 731 154 717 q 169 704 169 682 q 169 660 153 645 q 137 629 115 629 q 93 629 78 642 q 63 656 63 676 z"},"i":{"x_min":0,"x_max":249,"ha":249,"o":"m 70 676 q 70 699 85 715 q 101 731 124 731 q 147 731 161 717 q 176 704 176 682 q 176 660 160 645 q 145 629 122 629 q 100 629 85 642 q 70 656 70 676 z m 89 190 q 89 308 86 362 q 83 417 76 427 q 72 434 46 437 q 20 441 20 458 q 20 468 28 475 q 36 483 56 491 q 81 501 105 507 q 129 513 143 513 q 156 513 162 506 q 167 498 167 477 q 167 472 167 449 q 163 313 163 175 q 163 108 166 85 q 169 62 176 56 q 181 51 202 45 q 222 39 222 26 q 222 11 199 3 q 176 -4 127 -4 q 75 -4 52 3 q 29 10 29 26 q 29 39 49 45 q 70 51 75 56 q 83 63 86 91 q 89 119 89 190 z"},"y":{"x_min":0,"x_max":477,"ha":477,"o":"m 269 100 q 276 100 306 182 l 309 191 l 325 234 q 386 398 386 429 q 386 443 357 454 q 327 465 327 477 q 327 492 348 499 q 369 505 418 505 q 467 505 488 499 q 509 492 509 477 q 509 466 488 459 q 478 456 472 453 q 449 443 430 393 q 424 378 421 370 q 380 267 329 121 q 278 -24 261 -62 q 227 -141 189 -174 q 152 -207 100 -207 q 66 -207 46 -190 q 25 -174 25 -147 q 25 -127 37 -115 q 49 -102 67 -102 q 81 -102 90 -108 q 99 -114 107 -130 q 107 -131 109 -133 q 121 -154 138 -154 q 166 -154 191 -116 q 216 -78 216 -30 q 216 25 84 343 l 60 401 q 52 422 45 434 q 38 445 31 450 q 29 452 11 457 q -6 462 -6 475 q -6 491 17 498 q 40 505 92 505 q 147 505 171 498 q 194 491 194 475 q 194 468 190 463 q 186 459 175 456 q 172 455 168 454 q 143 445 143 431 q 143 417 157 372 q 171 326 195 266 q 239 156 251 128 q 264 100 269 100 z"},"@":{"x_min":0,"x_max":986,"ha":986,"o":"m 581 164 q 551 112 513 87 q 476 61 430 61 q 369 61 332 106 q 295 151 295 225 q 295 278 319 331 q 343 383 386 425 q 418 456 457 474 q 495 491 532 491 q 575 491 602 467 q 629 443 640 396 l 666 484 l 736 484 l 653 186 q 653 185 652 184 q 644 155 644 133 q 644 110 656 96 q 669 83 690 83 q 707 83 729 92 q 750 100 770 115 q 830 159 861 228 q 893 297 893 382 q 893 450 869 505 q 844 560 794 604 q 750 643 688 664 q 627 685 558 685 q 467 685 391 656 q 316 628 257 571 q 193 509 161 427 q 128 346 128 247 q 128 162 156 98 q 184 35 244 -16 q 300 -63 372 -88 q 443 -112 528 -112 q 607 -112 683 -86 q 758 -61 827 -11 l 842 -29 q 770 -83 689 -110 q 608 -137 522 -137 q 431 -137 355 -115 q 279 -92 221 -47 q 147 8 109 87 q 71 166 71 262 q 71 362 113 448 q 155 535 235 601 q 299 655 377 682 q 455 709 545 709 q 714 709 815 618 q 916 526 916 374 q 916 297 888 229 q 859 161 808 114 q 780 88 748 75 q 715 61 682 61 q 635 61 609 87 q 584 112 581 164 z m 536 471 q 510 471 488 456 q 466 441 443 407 q 408 354 387 293 q 366 231 366 183 q 366 138 386 111 q 406 85 439 85 q 471 85 500 107 q 530 128 557 172 q 585 218 602 271 q 618 324 618 367 q 618 413 595 442 q 572 471 536 471 z"},".":{"x_min":0,"x_max":269,"ha":269,"o":"m 76 44 q 76 69 93 86 q 109 103 134 103 q 159 103 176 86 q 193 69 193 44 q 193 20 176 3 q 159 -14 134 -14 q 109 -14 93 2 q 76 19 76 44 z"},"p":{"x_min":0,"x_max":576,"ha":576,"o":"m 159 453 q 159 445 160 442 q 161 439 164 439 q 172 439 189 454 q 192 457 194 458 q 229 486 258 497 q 287 509 320 509 q 420 509 482 442 q 543 375 543 266 q 543 146 472 67 q 401 -12 294 -12 q 261 -12 230 -4 q 199 5 166 23 l 159 19 q 159 -56 161 -91 q 163 -126 168 -134 q 175 -145 201 -150 q 228 -156 228 -169 q 228 -186 204 -193 q 181 -200 126 -200 q 71 -200 47 -193 q 23 -186 23 -169 q 23 -157 45 -150 q 68 -143 74 -134 q 79 -126 81 -88 q 83 -49 83 58 l 83 205 q 83 350 79 387 q 76 424 66 432 q 63 434 39 438 q 14 441 14 458 q 14 475 55 494 q 97 513 134 513 q 148 513 154 505 q 159 498 159 477 z m 159 316 l 159 157 q 159 124 162 111 q 165 98 172 89 q 191 64 227 48 q 263 32 300 32 q 375 32 417 84 q 458 135 458 229 q 458 330 413 390 q 368 449 292 449 q 229 449 194 415 q 159 380 159 316 z"},"X":{"x_min":0,"x_max":611,"ha":611,"o":"m 270 379 q 203 494 161 559 q 119 623 95 650 q 82 665 58 675 q 33 686 33 697 q 33 716 61 724 q 88 733 149 733 q 209 733 237 725 q 265 716 265 699 q 265 691 259 686 q 253 680 240 676 q 238 675 235 674 q 210 667 210 651 q 210 635 241 578 q 272 521 326 437 l 330 442 q 449 636 449 656 q 449 669 425 679 q 400 688 400 701 q 400 717 425 725 q 451 733 504 733 q 559 733 583 725 q 608 717 608 700 q 608 687 581 678 q 553 668 544 663 q 508 641 381 429 l 357 388 l 400 317 q 538 92 564 69 q 571 62 594 53 q 617 43 617 31 q 617 13 590 4 q 563 -4 501 -4 q 439 -4 413 4 q 386 12 386 31 q 386 38 392 44 q 398 50 410 54 q 414 55 419 57 q 441 63 441 78 q 441 98 406 160 q 372 222 300 329 l 288 309 q 155 93 155 73 q 155 58 177 50 q 180 49 181 49 q 192 45 198 40 q 203 34 203 27 q 203 11 178 3 q 153 -4 99 -4 q 44 -4 20 4 q -5 12 -5 29 q -5 42 23 51 q 51 61 60 66 q 95 87 238 325 z"},"*":{"x_min":0,"x_max":500,"ha":500,"o":"m 268 484 q 268 506 262 522 q 255 539 249 539 q 242 539 236 523 q 230 506 230 484 q 230 481 230 472 q 231 464 231 459 q 231 435 215 419 q 199 403 175 403 q 151 403 135 419 q 119 435 119 459 q 119 478 133 495 q 146 512 158 512 q 179 512 203 527 q 228 541 228 551 q 228 557 223 560 q 217 562 203 562 q 187 562 163 553 q 138 544 128 544 q 105 544 89 560 q 73 575 73 598 q 73 623 89 639 q 104 655 129 655 q 145 655 157 647 q 170 639 182 620 q 195 601 209 589 q 223 577 231 577 q 234 577 236 580 q 239 582 239 585 q 239 604 216 636 q 193 668 193 685 q 193 709 209 726 q 226 743 249 743 q 273 743 289 727 q 305 710 305 687 q 305 670 282 637 q 259 605 259 585 q 259 582 261 580 q 263 577 266 577 q 274 577 288 589 q 302 601 315 619 q 330 640 341 647 q 353 655 368 655 q 392 655 408 639 q 425 624 425 602 q 425 578 408 561 q 392 544 368 544 q 359 544 335 553 q 312 562 294 562 q 280 562 275 560 q 270 557 270 551 q 270 537 318 520 q 333 515 340 512 q 357 507 368 492 q 379 477 379 458 q 379 436 362 419 q 345 403 322 403 q 299 403 283 419 q 267 436 267 459 q 267 465 268 474 q 268 482 268 484 z"},"Y":{"x_min":0,"x_max":611,"ha":611,"o":"m 355 280 q 355 180 358 129 q 362 79 369 69 q 373 63 401 54 q 429 45 429 31 q 429 12 402 4 q 375 -4 314 -4 q 252 -4 225 4 q 198 13 198 31 q 198 45 226 54 q 254 63 258 69 q 265 79 269 129 q 272 179 272 279 l 272 350 q 195 476 144 553 q 93 631 75 650 q 62 664 37 675 q 12 686 12 697 q 12 716 40 724 q 67 733 128 733 q 188 733 216 725 q 244 716 244 699 q 244 691 238 686 q 232 680 219 676 q 217 675 213 674 q 189 667 189 652 q 189 636 224 573 q 260 509 326 405 q 400 526 433 585 q 465 643 465 656 q 465 669 440 679 q 415 688 415 701 q 415 717 440 725 q 466 733 519 733 q 568 733 591 725 q 614 717 614 700 q 614 688 589 678 q 564 668 555 661 q 526 639 364 373 l 355 357 z"},"c":{"x_min":0,"x_max":502,"ha":502,"o":"m 443 342 q 426 342 414 353 q 402 363 387 394 q 369 432 347 449 q 324 466 292 466 q 215 466 171 412 q 127 358 127 262 q 127 168 177 107 q 228 47 305 47 q 330 47 355 55 q 379 63 403 80 q 415 88 437 110 q 458 132 471 132 q 479 132 485 126 q 490 121 490 112 q 490 101 483 87 q 475 74 461 59 q 427 23 382 5 q 337 -13 284 -13 q 175 -13 106 58 q 38 129 38 243 q 38 359 111 436 q 183 512 292 512 q 371 512 429 474 q 487 435 487 389 q 487 369 474 355 q 462 342 443 342 z"},"!":{"x_min":0,"x_max":324,"ha":324,"o":"m 162 209 q 153 209 147 224 q 141 239 136 278 q 124 364 118 455 q 112 546 112 635 q 112 691 124 715 q 135 739 162 739 q 188 739 200 715 q 211 691 211 635 q 211 543 205 452 q 199 360 188 278 q 183 239 177 224 q 171 209 162 209 z m 107 37 q 107 60 123 76 q 139 92 162 92 q 185 92 200 76 q 216 60 216 36 q 216 14 199 -2 q 183 -18 160 -18 q 137 -18 122 -2 q 107 13 107 37 z"},"/":{"x_min":0,"x_max":278,"ha":278,"o":"m -1 -77 q -4 -85 -11 -89 q -18 -93 -30 -93 q -42 -93 -48 -90 q -53 -87 -53 -80 q -53 -75 -52 -71 q -51 -66 -49 -61 l 249 724 q 252 733 259 737 q 266 741 278 741 q 290 741 296 738 q 302 735 302 730 q 302 726 301 720 q 299 714 297 708 z"},"[":{"x_min":0,"x_max":331,"ha":331,"o":"m 93 641 q 93 704 110 718 q 127 733 194 733 l 245 733 q 289 733 303 727 q 318 722 318 707 q 318 692 307 685 q 297 678 274 678 l 212 678 q 189 678 179 669 q 170 660 170 637 l 170 -43 q 170 -65 179 -74 q 188 -83 212 -83 l 274 -83 q 297 -83 307 -90 q 318 -97 318 -112 q 318 -126 303 -132 q 289 -138 245 -138 l 194 -138 q 127 -138 110 -123 q 93 -108 93 -46 z"},"6":{"x_min":0,"x_max":537,"ha":537,"o":"m 135 344 q 177 392 221 415 q 265 439 310 439 q 401 439 457 380 q 512 321 512 224 q 512 184 500 147 q 488 110 464 78 q 431 34 384 10 q 337 -14 282 -14 q 179 -14 112 64 q 45 142 45 264 q 45 345 77 426 q 109 507 170 579 q 214 631 255 666 q 297 700 312 700 q 321 700 330 696 q 338 691 347 683 l 346 672 q 261 603 208 521 q 156 439 135 344 z m 431 196 q 431 272 387 325 q 342 378 279 378 q 221 378 182 336 q 144 294 144 229 q 144 146 188 92 q 231 37 297 37 q 357 37 394 81 q 431 124 431 196 z"},"r":{"x_min":0,"x_max":376,"ha":376,"o":"m 177 416 q 208 464 243 490 q 278 515 311 515 q 338 515 355 498 q 372 481 372 453 q 372 429 357 413 q 341 397 318 397 q 297 397 283 410 q 270 423 266 447 q 214 430 194 394 q 174 358 174 239 q 174 149 176 109 q 179 69 184 62 q 191 51 218 47 q 227 46 232 45 q 243 43 250 38 q 256 33 256 26 q 256 10 228 3 q 200 -4 141 -4 q 88 -4 65 3 q 42 10 42 26 q 42 39 62 45 q 83 51 88 56 q 96 63 99 88 q 102 113 102 175 q 102 259 100 314 q 98 370 93 396 q 90 417 83 425 q 76 432 53 432 l 44 432 q 36 432 30 438 q 24 444 24 452 q 24 461 31 469 q 39 477 58 486 q 83 499 106 507 q 129 515 138 515 q 151 515 159 494 q 166 473 171 419 z"},"2":{"x_min":0,"x_max":537,"ha":537,"o":"m 165 75 l 360 75 q 390 75 406 82 q 422 88 432 104 q 438 114 447 132 q 466 171 481 171 q 491 171 496 165 q 501 158 501 145 q 501 128 490 95 q 479 62 460 21 q 445 -12 436 -21 q 428 -31 417 -31 q 410 -31 405 -24 q 400 -18 400 -8 q 400 -7 400 -4 q 401 -2 401 0 l 70 0 q 42 0 30 5 q 17 10 17 22 q 17 38 80 95 q 116 128 138 149 q 275 281 321 349 q 366 417 366 478 q 366 530 336 559 q 306 589 253 589 q 219 589 187 574 q 156 560 127 530 q 117 520 102 501 q 78 472 65 472 q 57 472 52 477 q 46 482 46 490 q 46 506 58 526 q 70 546 95 571 q 130 606 175 625 q 219 644 269 644 q 355 644 407 597 q 459 551 459 474 q 459 410 418 347 q 378 285 266 188 q 198 130 175 108 q 152 85 152 78 q 152 77 155 76 q 159 75 165 75 z"},"{":{"x_min":0,"x_max":500,"ha":500,"o":"m 413 740 l 413 715 q 344 714 318 688 q 293 662 293 586 l 293 516 q 293 406 263 365 q 233 325 153 310 q 233 295 263 255 q 293 214 293 104 l 293 34 q 293 -42 318 -68 q 343 -93 413 -94 l 413 -119 l 408 -119 q 302 -119 263 -83 q 223 -47 223 50 l 223 154 q 223 231 194 260 q 166 290 86 296 l 86 325 q 167 333 195 361 q 223 390 223 467 l 223 571 q 223 668 263 704 q 302 740 408 740 z"},"9":{"x_min":0,"x_max":537,"ha":537,"o":"m 118 438 q 118 360 163 308 q 207 255 272 255 q 333 255 368 297 q 404 339 404 412 q 404 499 362 550 q 320 600 249 600 q 189 600 154 556 q 118 512 118 438 z m 399 276 q 366 235 322 213 q 278 191 230 191 q 147 191 90 255 q 32 319 32 413 q 32 514 100 580 q 167 646 271 646 q 375 646 436 574 q 498 502 498 381 q 498 292 467 210 q 436 129 373 54 q 328 1 285 -34 q 242 -70 226 -70 q 216 -70 206 -64 q 196 -59 187 -47 l 188 -37 q 272 29 326 108 q 379 187 399 276 z"}," ":{"x_min":0,"x_max":269,"ha":269,"o":""},"I":{"x_min":0,"x_max":299,"ha":299,"o":"m 149 733 q 210 733 238 724 q 265 716 265 697 q 265 683 237 674 q 208 665 204 659 q 196 649 193 588 q 190 527 190 365 q 190 202 193 140 q 196 79 204 69 q 208 63 237 54 q 265 45 265 31 q 265 13 238 4 q 211 -4 149 -4 q 87 -4 60 4 q 33 13 33 31 q 33 45 61 54 q 89 63 94 69 q 102 79 105 140 q 108 202 108 365 q 108 527 105 588 q 102 649 94 659 q 90 665 62 674 q 33 683 33 697 q 33 716 61 724 q 88 733 149 733 z"},"H":{"x_min":0,"x_max":755,"ha":755,"o":"m 345 358 q 277 358 242 355 q 208 353 197 346 q 192 343 190 333 q 188 323 188 297 l 188 245 q 188 131 192 101 q 196 71 206 65 q 214 61 230 55 q 261 45 261 31 q 261 13 234 4 q 207 -4 145 -4 q 83 -4 57 4 q 30 12 30 31 q 30 45 58 54 q 86 63 90 69 q 98 79 101 140 q 104 202 104 365 q 104 527 101 588 q 98 649 90 659 q 86 665 58 674 q 30 683 30 697 q 30 716 57 724 q 84 733 145 733 q 206 733 233 724 q 261 716 261 697 q 261 684 231 674 q 214 668 206 664 q 196 658 192 625 q 188 592 188 482 l 188 466 q 188 445 190 437 q 192 428 197 425 q 208 419 244 417 q 281 414 382 414 q 470 414 508 417 q 547 419 558 425 q 563 428 565 436 q 567 444 567 466 l 567 497 q 567 598 563 628 q 559 658 549 664 q 542 668 524 674 q 494 684 494 697 q 494 716 521 724 q 548 733 609 733 q 669 733 697 724 q 724 716 724 697 q 724 683 697 674 q 669 665 665 659 q 657 649 653 584 q 650 519 650 365 q 650 213 653 146 q 657 79 664 69 q 668 63 696 54 q 724 45 724 31 q 724 12 697 4 q 670 -4 609 -4 q 547 -4 521 4 q 494 12 494 31 q 494 45 524 55 q 542 61 549 65 q 559 71 562 102 q 566 133 566 218 l 566 314 q 566 335 562 341 q 559 347 549 350 q 538 354 486 356 q 434 358 345 358 z"},"4":{"x_min":0,"x_max":537,"ha":537,"o":"m 362 131 l 362 518 l 356 520 q 284 432 212 337 q 140 242 69 140 l 72 131 z m 503 131 q 514 131 518 126 q 523 121 523 109 l 523 88 q 523 77 518 72 q 513 67 502 67 l 438 67 l 438 -62 q 438 -74 433 -80 q 427 -86 416 -86 l 386 -86 q 374 -86 368 -80 q 362 -74 362 -62 l 362 67 l 30 67 q 7 67 1 72 q -5 78 -5 91 q -5 131 96 262 q 130 307 150 333 q 229 440 295 525 q 361 610 378 628 q 387 637 396 642 q 406 646 416 646 q 429 646 435 639 q 441 632 441 616 q 441 613 440 598 q 438 522 438 450 l 438 131 z"},"~":{"x_min":0,"x_max":833,"ha":833,"o":"m 747 370 l 747 306 q 698 271 651 253 q 604 236 558 236 q 537 236 514 240 q 491 245 465 253 q 450 258 422 268 q 324 303 275 303 q 234 303 190 285 q 146 267 87 225 l 87 290 q 138 326 186 343 q 233 361 276 361 q 303 361 333 355 q 362 349 418 329 q 424 327 435 323 q 515 294 559 294 q 601 294 645 312 q 689 330 747 370 z"},"D":{"x_min":0,"x_max":760,"ha":760,"o":"m 336 53 q 481 53 552 128 q 624 204 624 356 q 624 517 550 597 q 476 677 327 677 q 275 677 244 673 q 213 669 205 661 q 196 651 192 584 q 188 517 188 369 q 188 222 191 161 q 194 100 201 83 q 207 68 241 61 q 274 53 336 53 z m 169 1 q 163 1 144 0 q 125 -2 113 -2 q 69 -2 50 6 q 30 14 30 31 q 30 45 58 54 q 86 63 90 69 q 98 79 101 140 q 104 202 104 365 q 104 527 101 588 q 98 649 90 659 q 86 665 58 674 q 30 683 30 697 q 30 708 39 716 q 49 724 66 726 q 66 726 72 727 q 183 733 328 733 q 519 733 622 635 q 725 537 725 356 q 725 180 621 89 q 517 -2 316 -2 q 297 -2 248 0 q 199 1 169 1 z"},"^":{"x_min":0,"x_max":1000,"ha":1000,"o":"m 456 714 l 543 714 l 797 438 l 752 438 l 499 651 l 245 438 l 201 438 z"},"0":{"x_min":0,"x_max":537,"ha":537,"o":"m 503 306 q 503 169 437 78 q 372 -14 278 -14 q 241 -14 205 1 q 169 17 140 45 q 87 98 61 168 q 34 238 34 327 q 34 402 54 462 q 75 521 117 572 q 146 607 184 627 q 222 646 262 646 q 297 646 333 631 q 368 615 397 587 q 451 534 477 465 q 503 396 503 306 z m 284 32 q 342 32 377 98 q 411 163 411 276 q 411 415 365 508 q 319 600 254 600 q 196 600 161 535 q 127 471 127 360 q 127 217 173 125 q 218 32 284 32 z"},"F":{"x_min":0,"x_max":601,"ha":601,"o":"m 357 344 l 225 344 q 210 344 206 335 q 201 327 201 297 l 201 231 q 201 146 206 108 q 210 71 220 65 q 228 61 245 55 q 275 45 275 31 q 275 13 248 4 q 221 -4 159 -4 q 97 -4 71 4 q 44 12 44 31 q 44 45 72 54 q 100 63 104 69 q 112 79 115 140 q 118 202 118 365 q 118 527 115 588 q 112 649 104 659 q 100 665 72 674 q 44 683 44 697 q 44 714 63 721 q 82 729 126 729 l 465 729 q 489 729 515 734 q 540 739 541 739 q 561 739 573 709 q 584 680 584 628 q 584 608 577 598 q 570 587 558 587 q 545 587 530 615 q 525 623 522 628 q 507 652 488 661 q 468 670 428 670 l 300 670 q 253 670 235 666 q 216 662 212 651 q 207 637 204 596 q 202 555 202 445 l 202 437 q 202 411 206 406 q 210 401 225 401 l 357 401 q 391 401 405 411 q 418 422 422 451 q 422 455 423 462 q 430 508 451 508 q 470 508 477 483 q 484 458 484 372 q 484 286 477 261 q 470 236 451 236 q 430 236 423 282 q 422 290 422 293 q 418 322 405 333 q 391 344 357 344 z"},"`":{"x_min":0,"x_max":500,"ha":500,"o":"m 168 718 l 290 625 q 293 623 299 618 q 325 599 325 589 q 325 582 318 574 q 310 566 302 566 q 296 566 288 570 q 279 574 262 584 l 122 666 q 106 675 101 681 q 96 688 96 695 q 96 708 108 723 q 120 737 132 737 q 142 737 165 720 z"},"k":{"x_min":0,"x_max":493,"ha":493,"o":"m 162 200 q 162 133 164 101 q 166 69 171 62 q 177 53 199 46 q 222 39 222 26 q 222 10 199 3 q 176 -4 124 -4 q 72 -4 48 3 q 25 10 25 26 q 25 39 48 46 q 70 53 76 62 q 82 71 84 119 q 86 167 86 309 q 86 500 83 573 q 80 645 72 656 q 68 663 42 666 q 15 670 15 687 q 15 696 24 704 q 33 712 52 720 q 78 730 103 736 q 128 742 139 742 q 154 742 159 735 q 165 727 165 706 q 165 702 162 596 q 159 490 159 389 q 159 329 161 315 q 163 301 167 301 q 175 301 192 314 q 209 328 235 353 q 277 395 293 414 q 308 433 308 442 q 308 453 287 460 q 265 468 265 479 q 265 494 291 500 q 317 507 377 507 q 428 507 451 501 q 474 495 474 481 q 474 469 436 457 q 397 444 370 424 q 324 389 287 349 q 250 310 250 302 q 250 299 254 291 q 259 283 270 268 q 327 192 375 136 q 422 81 450 59 q 465 47 494 42 q 524 37 524 23 q 524 9 500 2 q 475 -6 430 -6 q 404 -6 391 1 q 377 8 353 35 q 340 49 293 113 q 246 176 207 222 q 189 243 182 249 q 175 256 172 256 q 167 256 164 250 q 162 245 162 225 z"},"u":{"x_min":0,"x_max":578,"ha":578,"o":"m 418 23 l 418 65 q 418 73 417 76 q 415 79 412 79 q 405 79 392 61 q 381 46 374 38 q 351 12 321 0 q 290 -13 251 -13 q 160 -13 118 44 q 76 101 76 225 l 76 309 q 76 380 73 404 q 69 427 61 433 q 58 435 34 438 q 9 441 9 459 q 9 468 18 476 q 27 484 46 492 q 71 502 97 508 q 122 514 133 514 q 148 514 154 507 q 159 499 159 478 q 159 453 156 392 q 152 331 152 295 l 152 267 q 152 196 155 164 q 158 132 166 111 q 177 81 203 64 q 230 47 266 47 q 303 47 336 65 q 370 83 395 115 q 407 131 412 153 q 417 175 417 222 l 417 280 l 417 309 q 417 380 414 403 q 410 427 402 433 q 399 435 375 438 q 351 442 351 459 q 351 468 360 476 q 368 484 387 492 q 412 502 438 508 q 464 514 475 514 q 489 514 495 507 q 500 500 500 478 q 500 447 497 382 q 493 317 493 283 q 493 173 496 128 q 499 83 505 73 q 509 66 536 63 q 562 59 562 42 q 562 25 521 6 q 479 -13 442 -13 q 429 -13 423 -6 q 418 2 418 23 z"},"]":{"x_min":0,"x_max":331,"ha":331,"o":"m 239 -46 q 239 -108 222 -123 q 205 -138 137 -138 l 87 -138 q 43 -138 29 -132 q 14 -126 14 -112 q 14 -97 25 -90 q 35 -83 58 -83 l 120 -83 q 144 -83 153 -74 q 162 -65 162 -43 l 162 637 q 162 660 153 669 q 143 678 120 678 l 58 678 q 35 678 25 685 q 14 691 14 706 q 14 721 29 726 q 43 732 87 732 l 137 732 q 205 732 222 717 q 239 702 239 640 z"},"U":{"x_min":0,"x_max":713,"ha":713,"o":"m 631 343 q 631 243 623 190 q 616 138 598 102 q 570 44 509 13 q 449 -19 366 -19 q 278 -19 219 10 q 159 39 124 98 q 107 126 99 174 q 92 221 92 307 q 92 333 92 375 q 93 417 93 434 q 93 555 90 603 q 87 650 80 659 q 76 665 47 674 q 19 683 19 697 q 19 716 47 724 q 74 733 135 733 q 196 733 223 724 q 251 716 251 697 q 251 683 223 674 q 195 665 191 659 q 183 649 178 573 q 174 496 174 367 q 174 260 183 198 q 192 137 213 106 q 237 69 279 50 q 320 30 375 30 q 438 30 482 57 q 525 83 551 138 q 562 162 567 222 q 572 282 572 385 l 572 448 q 572 571 569 612 q 567 653 560 662 q 556 667 527 676 q 499 685 499 698 q 499 716 524 724 q 548 733 600 733 q 653 733 678 725 q 703 716 703 698 q 703 685 679 677 q 655 670 648 666 q 638 660 634 624 q 630 588 630 497 q 630 455 630 403 q 631 352 631 343 z"},"o":{"x_min":0,"x_max":578,"ha":578,"o":"m 122 271 q 122 167 171 100 q 221 32 294 32 q 369 32 411 86 q 454 140 454 235 q 454 334 403 400 q 352 466 275 466 q 208 466 165 412 q 122 358 122 271 z m 34 242 q 34 358 110 436 q 185 513 298 513 q 405 513 475 442 q 544 371 544 261 q 544 144 469 65 q 395 -13 284 -13 q 178 -13 106 60 q 34 134 34 242 z"},"N":{"x_min":0,"x_max":766,"ha":766,"o":"m 157 599 l 157 365 q 157 220 161 149 q 164 79 172 69 q 176 63 205 54 q 233 45 233 31 q 233 13 209 5 q 186 -3 132 -3 q 78 -3 53 5 q 29 13 29 31 q 29 45 57 54 q 86 63 90 69 q 98 79 101 140 q 104 202 104 365 q 104 527 101 588 q 98 649 90 659 q 86 665 57 674 q 29 683 29 697 q 29 714 50 722 q 71 731 111 731 q 142 731 159 724 q 175 716 191 695 q 200 684 226 648 q 420 385 626 135 l 626 364 q 626 539 623 594 q 620 649 612 659 q 608 665 579 674 q 551 683 551 697 q 551 715 575 723 q 599 731 653 731 q 707 731 731 723 q 755 715 755 697 q 755 690 749 685 q 743 680 730 675 q 727 674 720 672 q 693 664 690 651 q 685 632 682 510 q 679 389 679 175 l 679 35 q 679 6 674 0 q 669 -7 657 -7 q 641 -7 628 0 q 616 8 593 36 q 543 96 422 253 q 300 410 157 599 z"},"+":{"x_min":0,"x_max":833,"ha":833,"o":"m 388 596 l 446 596 l 446 327 l 709 327 l 709 270 l 446 270 l 446 0 l 388 0 l 388 270 l 124 270 l 124 327 l 388 327 z"},"G":{"x_min":0,"x_max":729,"ha":729,"o":"m 400 -17 q 241 -17 141 92 q 41 200 41 374 q 41 535 141 638 q 242 741 399 741 q 455 741 510 727 q 566 712 567 712 q 577 712 592 716 q 608 720 614 720 q 636 720 651 682 q 665 645 665 586 q 665 564 658 553 q 651 541 638 541 q 619 541 604 578 q 594 603 586 615 q 561 652 515 671 q 469 689 401 689 q 276 689 208 614 q 139 540 139 404 q 139 337 155 274 q 171 211 200 163 q 237 102 292 69 q 347 36 412 36 q 485 36 528 78 q 572 121 572 191 q 572 223 566 236 q 561 250 546 253 q 534 256 514 258 q 468 264 468 289 q 468 308 500 317 q 533 325 609 325 q 687 325 719 317 q 751 308 751 289 q 751 264 695 255 q 688 253 684 253 q 677 251 673 245 q 668 238 664 223 q 663 220 655 176 q 646 131 630 98 q 601 42 542 12 q 484 -17 400 -17 z"},"q":{"x_min":0,"x_max":576,"ha":576,"o":"m 409 23 q 376 5 342 -4 q 308 -13 272 -13 q 169 -13 102 60 q 35 133 35 247 q 35 361 104 435 q 172 509 276 509 q 315 509 353 500 q 391 491 434 471 q 454 493 471 503 q 487 513 502 513 q 508 513 514 510 q 521 507 526 502 q 507 486 500 438 q 492 390 492 234 l 492 207 q 492 -2 494 -59 q 496 -115 500 -129 q 504 -142 529 -149 q 553 -157 553 -169 q 553 -186 530 -193 q 506 -200 451 -200 q 396 -200 372 -193 q 348 -186 348 -169 q 348 -156 375 -150 q 401 -145 408 -134 q 413 -126 415 -91 q 417 -56 417 19 z m 416 328 q 416 394 382 429 q 348 465 285 465 q 211 465 165 405 q 118 346 118 250 q 118 156 164 95 q 210 34 281 34 q 315 34 343 45 q 370 57 393 80 q 405 92 411 107 q 416 122 416 151 l 416 165 z"},"d":{"x_min":0,"x_max":584,"ha":584,"o":"m 423 584 q 423 625 418 643 q 414 660 403 663 q 398 665 386 666 q 357 669 357 687 q 357 697 366 705 q 375 713 396 720 q 424 730 448 736 q 472 742 485 742 q 499 742 504 735 q 509 727 509 706 q 509 686 504 564 q 499 441 499 339 q 499 195 502 139 q 505 82 512 71 q 516 64 542 61 q 568 57 568 40 q 568 23 527 4 q 485 -15 448 -15 q 435 -15 429 -8 q 424 0 424 21 l 424 37 q 424 45 423 48 q 422 51 419 51 q 412 51 396 39 q 390 34 387 32 q 355 10 325 0 q 295 -9 256 -9 q 158 -9 96 60 q 34 129 34 240 q 34 356 104 434 q 174 511 278 511 q 343 511 402 479 q 411 474 413 474 q 417 474 420 482 q 423 489 423 503 z m 423 331 q 423 395 389 428 q 355 462 291 462 q 217 462 171 403 q 125 343 125 246 q 125 157 167 102 q 210 48 279 48 q 311 48 343 61 q 376 73 400 95 q 413 106 418 119 q 423 132 423 160 l 423 174 z"},"1":{"x_min":0,"x_max":537,"ha":537,"o":"m 239 280 l 239 325 q 239 484 234 525 q 229 567 217 567 q 208 567 185 559 q 162 552 149 552 q 139 552 134 557 q 128 562 128 572 q 128 583 138 591 q 148 599 174 608 q 221 625 264 634 q 307 644 328 644 q 340 644 348 639 q 355 634 355 625 q 355 614 341 607 q 328 600 326 598 q 320 591 317 566 q 315 541 315 470 l 315 431 l 315 387 l 315 302 l 315 229 q 315 139 317 104 q 319 70 323 63 q 327 57 337 53 q 346 49 373 45 q 378 44 387 42 q 413 38 413 25 q 413 9 385 3 q 358 -3 276 -3 q 185 -3 156 3 q 128 9 128 24 q 128 32 133 37 q 139 41 157 45 q 158 45 161 45 q 213 48 225 58 q 233 64 236 93 q 239 121 239 206 z"},"5":{"x_min":0,"x_max":537,"ha":537,"o":"m 489 632 q 477 578 467 567 q 458 556 428 556 l 223 556 q 210 556 204 550 q 197 544 189 518 q 174 471 165 431 q 156 391 156 381 q 156 370 195 363 q 219 359 236 355 q 359 326 418 275 q 476 225 476 147 q 476 98 455 54 q 435 11 396 -22 q 357 -55 310 -73 q 263 -90 212 -90 q 151 -90 103 -70 q 54 -49 54 -30 q 54 -18 59 -9 q 63 0 69 0 q 71 0 83 -6 q 143 -36 202 -36 q 281 -36 331 8 q 380 52 380 122 q 380 186 343 221 q 305 256 210 277 q 188 282 152 288 q 93 299 93 318 q 93 340 117 431 q 141 521 179 632 z"}}}
